<svg xmlns="http://www.w3.org/2000/svg" width="210" height="26" viewBox="0 0 210 26">
    <defs>
        <clipPath id="ejfcbpc19a">
            <path data-name="사각형 5" style="fill:none" d="M0 0h210v26H0z"/>
        </clipPath>
    </defs>
    <g data-name="그룹 13" style="clip-path:url(#ejfcbpc19a)">
        <path data-name="패스 1" d="M174.032 20.513a3.707 3.707 0 0 1-3.664 2.987 4.064 4.064 0 0 1-4-4.38c0-2.561 1.682-4.421 4-4.421a3.832 3.832 0 0 1 3.669 2.76l.1.291h5.838l-.079-.494a9.352 9.352 0 0 0-9.54-8.056 9.744 9.744 0 0 0-10.009 9.916 9.807 9.807 0 0 0 2.867 7.056 10.061 10.061 0 0 0 7.141 2.83 9.406 9.406 0 0 0 9.588-8.327l.071-.488h-5.9z" transform="translate(-54.485 -3.123)" style="fill:#f1658a"/>
        <path data-name="패스 2" d="M204.48 9.2c-6 0-10.356 4.164-10.356 9.9a9.7 9.7 0 0 0 2.932 7.1 10.637 10.637 0 0 0 7.423 2.8 10.6 10.6 0 0 0 7.411-2.782 9.72 9.72 0 0 0 2.914-7.119 9.718 9.718 0 0 0-2.914-7.118 10.6 10.6 0 0 0-7.41-2.781m4.3 9.9a4.32 4.32 0 1 1-8.637 0 4.32 4.32 0 1 1 8.637 0" transform="translate(-65.962 -3.123)" style="fill:#f1658a"/>
        <path data-name="패스 3" d="M229.321 28.652h5.933V22.4h5.863v-5.151h-5.863v-1.994h6.546V9.96h-12.479z" transform="translate(-77.922 -3.38)" style="fill:#f1658a"/>
        <path data-name="패스 4" d="M251.739 28.652h5.933V22.4h5.863v-5.151h-5.863v-1.994h6.541V9.96h-12.474z" transform="translate(-85.54 -3.38)" style="fill:#f1658a"/>
        <path data-name="패스 5" d="M280.045 21.716h5.993v-4.879h-5.993v-1.782h6.671V9.96h-12.538v18.692h12.758v-5.11h-6.891z" transform="translate(-93.164 -3.38)" style="fill:#f1658a"/>
        <path data-name="패스 6" d="M303.969 23.542v-1.827h5.992v-4.878h-5.992v-1.782h6.67V9.96H298.1v18.692h12.76v-5.11z" transform="translate(-101.294 -3.38)" style="fill:#f1658a"/>
        <path data-name="패스 7" d="M10.941 6.131c5.719 0 9.76 4.112 9.76 9.889s-4.04 9.889-9.76 9.889a8.622 8.622 0 0 1-5.6-1.989l-.6 1.38H0V0h6.325v7.413a8.7 8.7 0 0 1 4.616-1.282zm3.3 9.889a4.086 4.086 0 0 0-4.158-4.24 4.086 4.086 0 0 0-4.158 4.24 4.081 4.081 0 0 0 4.158 4.22 4.09 4.09 0 0 0 4.158-4.22" style="fill:#f1658a"/>
        <path data-name="패스 8" d="M55.781 9.806V28.4h-4.946l-.548-1.315a8.792 8.792 0 0 1-5.605 1.944c-5.68 0-9.74-4.146-9.74-9.923a9.43 9.43 0 0 1 9.74-9.855 8.808 8.808 0 0 1 5.676 2l.655-1.438zM49.7 19.115a4.158 4.158 0 1 0-8.316 0 4.159 4.159 0 1 0 8.316 0" transform="translate(-11.873 -3.138)" style="fill:#f1658a"/>
        <path data-name="패스 9" d="M89.145 17.1v11.331h-6.4v-10.45c0-2.164-.812-3.237-2.423-3.237-1.994 0-3.143 1.394-3.143 3.761v9.926h-6.4V9.842h4.489l.879 1.917A7.72 7.72 0 0 1 82 9.292c4.314 0 7.147 3.068 7.147 7.8" transform="translate(-24.052 -3.153)" style="fill:#f1658a"/>
        <path data-name="패스 10" d="M123.072 9.846v18.589h-4.946l-.549-1.315a8.79 8.79 0 0 1-5.6 1.944c-5.68 0-9.74-4.146-9.74-9.923a9.429 9.429 0 0 1 9.74-9.855 8.808 8.808 0 0 1 5.676 2l.654-1.438zm-6.085 9.309a4.159 4.159 0 1 0-8.317 0 4.159 4.159 0 1 0 8.317 0" transform="translate(-34.738 -3.151)" style="fill:#f1658a"/>
        <path data-name="패스 11" d="M143.374 17.878a.333.333 0 0 0 .334-.375v-.388h-.67v.385a.335.335 0 0 0 .336.375" transform="translate(-48.604 -5.807)" style="fill:#f1658a"/>
        <path data-name="패스 12" d="M142.432 33.374a.814.814 0 1 0 .831.816.8.8 0 0 0-.831-.816" transform="translate(-48.115 -11.325)" style="fill:#f1658a"/>
        <path data-name="패스 13" d="M143.313 13.6a.355.355 0 0 0 .375-.372v-.36h-.75v.36a.356.356 0 0 0 .375.372" transform="translate(-48.57 -4.368)" style="fill:#f1658a"/>
        <path data-name="패스 14" d="M137.714 28.732h6.58V10.13h-6.58zm1.853-17.644h3.088V12.4a1.118 1.118 0 1 1-2.235 0v-.462h-.853zm0 4.466.945-.5v-.309h-.945v-.852h3.088v1.339a1.078 1.078 0 0 1-1.093 1.15.989.989 0 0 1-.872-.491l-1.123.614zm0 1.28h3.088v1.977h-.735v-1.13h-.455V18.7h-.7v-1.018h-.462v1.167h-.738zm1 2.31v.878a.328.328 0 0 0-.327.365c0 .178.094.349.263.349.193 0 .25-.24.321-.535.111-.447.248-1.017.951-1.017.608 0 .957.447.957 1.176s-.38 1.166-1.009 1.166v-.854a.285.285 0 0 0 .287-.322c0-.151-.066-.3-.21-.3-.176 0-.234.233-.307.524-.117.455-.269 1.05-.974 1.05-.675 0-1.025-.519-1.025-1.236 0-.756.4-1.245 1.073-1.245m0 2.734v.878a.328.328 0 0 0-.327.365c0 .178.094.349.263.349.193 0 .25-.241.321-.535.111-.447.248-1.017.951-1.017.608 0 .957.447.957 1.176s-.38 1.165-1.009 1.165v-.854a.285.285 0 0 0 .287-.322c0-.151-.066-.3-.21-.3-.176 0-.234.233-.307.524-.117.455-.269 1.05-.974 1.05-.675 0-1.025-.519-1.025-1.236 0-.756.4-1.245 1.073-1.245m.544 6.125a1.7 1.7 0 1 1 1.622-1.7 1.6 1.6 0 0 1-1.622 1.7" transform="translate(-46.795 -3.438)" style="fill:#f1658a"/>
    </g>
</svg>
