<svg xmlns="http://www.w3.org/2000/svg" width="146" height="18" viewBox="0 0 146 18">
    <defs>
        <clipPath id="9xx437ljta">
            <path data-name="사각형 5" style="fill:none" d="M0 0h146v18H0z"/>
        </clipPath>
    </defs>
    <g data-name="그룹 13" style="clip-path:url(#9xx437ljta)">
        <path data-name="패스 1" d="M169.881 17.059a2.581 2.581 0 0 1-2.553 2.075 2.826 2.826 0 0 1-2.786-3.043 2.842 2.842 0 0 1 2.786-3.071 2.668 2.668 0 0 1 2.556 1.917l.067.2h4.067l-.055-.343A6.51 6.51 0 0 0 167.32 9.2a6.779 6.779 0 0 0-6.973 6.888 6.8 6.8 0 0 0 2 4.9 7.02 7.02 0 0 0 4.975 1.966A6.547 6.547 0 0 0 174 17.175l.049-.339h-4.112z" transform="translate(-86.595 -4.98)" style="fill:#f1658a"/>
        <path data-name="패스 2" d="M201.339 9.2c-4.18 0-7.215 2.893-7.215 6.877a6.726 6.726 0 0 0 2.043 4.934 7.423 7.423 0 0 0 5.171 1.943 7.4 7.4 0 0 0 5.163-1.933 6.742 6.742 0 0 0 2.03-4.945 6.74 6.74 0 0 0-2.03-4.944 7.4 7.4 0 0 0-5.162-1.932m3 6.878a3.009 3.009 0 1 1-6.017 0 3.009 3.009 0 1 1 6.017 0" transform="translate(-104.837 -4.98)" style="fill:#f1658a"/>
        <path data-name="패스 3" d="M229.321 22.944h4.133V18.6h4.085v-3.577h-4.085v-1.385h4.557V9.96h-8.69z" transform="translate(-123.845 -5.389)" style="fill:#f1658a"/>
        <path data-name="패스 4" d="M251.739 22.944h4.133V18.6h4.084v-3.577h-4.084v-1.385h4.557V9.96h-8.69z" transform="translate(-135.951 -5.389)" style="fill:#f1658a"/>
        <path data-name="패스 5" d="M278.265 18.126h4.175v-3.389h-4.175V13.5h4.647V9.96h-8.734v12.984h8.888v-3.549h-4.8z" transform="translate(-148.07 -5.389)" style="fill:#f1658a"/>
        <path data-name="패스 6" d="M302.19 19.394v-1.269h4.174v-3.388h-4.174V13.5h4.647V9.96H298.1v12.984h8.888v-3.55z" transform="translate(-160.99 -5.389)" style="fill:#f1658a"/>
        <path data-name="패스 7" d="M7.622 4.259a6.567 6.567 0 0 1 6.8 6.869A6.567 6.567 0 0 1 7.622 18a6.018 6.018 0 0 1-3.9-1.381l-.42.958H0V0h4.406v5.15a6.077 6.077 0 0 1 3.216-.891zm2.3 6.869a2.842 2.842 0 0 0-2.9-2.945 2.842 2.842 0 0 0-2.9 2.945 2.839 2.839 0 0 0 2.9 2.931 2.845 2.845 0 0 0 2.9-2.931" style="fill:#f1658a"/>
        <path data-name="패스 8" d="M49.46 9.635v12.913h-3.446l-.382-.913a6.136 6.136 0 0 1-3.9 1.35 6.591 6.591 0 0 1-6.786-6.893 6.56 6.56 0 0 1 6.786-6.845 6.147 6.147 0 0 1 3.954 1.388l.456-1zM45.22 16.1a2.9 2.9 0 1 0-5.794 0 2.9 2.9 0 1 0 5.794 0" transform="translate(-18.87 -5.003)" style="fill:#f1658a"/>
        <path data-name="패스 9" d="M83.575 14.713v7.873h-4.457v-7.259c0-1.5-.566-2.248-1.688-2.248-1.39 0-2.189.968-2.189 2.612v6.895h-4.458V9.674h3.127l.612 1.331A5.386 5.386 0 0 1 78.6 9.292c3.005 0 4.979 2.131 4.979 5.421" transform="translate(-38.226 -5.028)" style="fill:#f1658a"/>
        <path data-name="패스 10" d="M116.751 9.675v12.913h-3.445l-.382-.913a6.135 6.135 0 0 1-3.9 1.35 6.591 6.591 0 0 1-6.786-6.893 6.559 6.559 0 0 1 6.786-6.845 6.147 6.147 0 0 1 3.954 1.388l.456-1zm-4.239 6.466a2.9 2.9 0 1 0-5.794 0 2.9 2.9 0 1 0 5.794 0" transform="translate(-55.211 -5.025)" style="fill:#f1658a"/>
        <path data-name="패스 11" d="M143.272 17.645a.232.232 0 0 0 .233-.261v-.27h-.467v.27a.233.233 0 0 0 .234.261" transform="translate(-77.248 -9.26)" style="fill:#f1658a"/>
        <path data-name="패스 12" d="M142.18 33.374a.565.565 0 1 0 .579.567.555.555 0 0 0-.579-.567" transform="translate(-76.472 -18.058)" style="fill:#f1658a"/>
        <path data-name="패스 13" d="M143.2 13.38a.247.247 0 0 0 .261-.258v-.25h-.523v.25a.247.247 0 0 0 .261.258" transform="translate(-77.194 -6.965)" style="fill:#f1658a"/>
        <path data-name="패스 14" d="M137.714 23.052h4.586V10.13h-4.584zm1.291-12.252h2.152v.914a.779.779 0 1 1-1.557 0v-.321h-.594zm0 3.1.658-.348v-.214h-.658v-.592h2.152v.93a.75.75 0 0 1-.762.8.69.69 0 0 1-.608-.341l-.782.426zm0 .889h2.152v1.371h-.512v-.785h-.317v.7h-.486v-.7h-.322v.811h-.514zm.695 1.6V17a.228.228 0 0 0-.228.253c0 .124.066.242.184.242.135 0 .174-.167.224-.372.077-.31.172-.706.663-.706.424 0 .666.311.666.817s-.265.81-.7.81v-.593a.2.2 0 0 0 .2-.224c0-.105-.046-.207-.146-.207-.122 0-.163.162-.214.364-.081.316-.187.729-.678.729-.47 0-.714-.36-.714-.859 0-.525.279-.865.747-.865m0 1.9v.61a.228.228 0 0 0-.228.253c0 .124.066.242.184.242.135 0 .174-.168.224-.372.077-.31.172-.706.663-.706.424 0 .666.311.666.817s-.265.81-.7.81v-.593a.2.2 0 0 0 .2-.224c0-.105-.046-.207-.146-.207-.122 0-.163.162-.214.364-.081.316-.187.729-.678.729-.47 0-.714-.36-.714-.859 0-.525.279-.865.747-.865m.381 4.253a1.182 1.182 0 1 1 1.13-1.179 1.112 1.112 0 0 1-1.13 1.179" transform="translate(-74.372 -5.481)" style="fill:#f1658a"/>
    </g>
</svg>
