<svg xmlns="http://www.w3.org/2000/svg" width="18" height="18" viewBox="0 0 18 18">
    <defs>
        <clipPath id="o5lyl6paxa">
            <path data-name="사각형 599" transform="translate(260 466)" style="stroke:#707070;fill:#fff" d="M0 0h18v18H0z"/>
        </clipPath>
    </defs>
    <g data-name="그룹 243" transform="translate(-260 -466)" style="clip-path:url(#o5lyl6paxa)">
        <g data-name="사각형 600" style="stroke:#000;fill:none">
            <path d="M0 0h16v11a3 3 0 0 1-3 3H3a3 3 0 0 1-3-3V0z" style="stroke:none" transform="translate(261 468)"/>
            <path d="M1 .5h14a.5.5 0 0 1 .5.5v10a2.5 2.5 0 0 1-2.5 2.5H3A2.5 2.5 0 0 1 .5 11V1A.5.5 0 0 1 1 .5z" style="fill:none" transform="translate(261 468)"/>
        </g>
        <g data-name="사각형 603" transform="translate(261 472)" style="stroke:#000;fill:#fff">
            <path style="stroke:none" d="M0 0h16v1H0z"/>
            <rect x=".5" y=".5" width="15" style="fill:none"/>
        </g>
        <g data-name="사각형 601" transform="translate(264 466)" style="stroke:#000;fill:#fff">
            <path style="stroke:none" d="M0 0h1v5H0z"/>
            <rect x=".5" y=".5" height="4" style="fill:none"/>
        </g>
        <g data-name="사각형 602" transform="translate(273 466)" style="stroke:#000;fill:#fff">
            <path style="stroke:none" d="M0 0h1v5H0z"/>
            <rect x=".5" y=".5" height="4" style="fill:none"/>
        </g>
    </g>
</svg>
